<svg width="129" height="37" viewBox="0 0 129 37" fill="none" xmlns="http://www.w3.org/2000/svg">
<path d="M120 32.25V25.2681L116.5 30.0181V32.25H120Z" fill="url(#paint0_linear)"/>
<path d="M88 36.5H93.5L106.5 19.5V35.0181L120 16.5V11.0181L110 24V7.5L88 36.5Z" fill="url(#paint1_linear)"/>
<path d="M106.5 36.5H126V33H113.5C116.167 29.5 121.2 22.1181 124 18.5181C127.5 14.0181 131 5.01819 125 1.51819C120.2 -1.28181 114.667 2.35153 112.5 4.51819V8.5C123 0 125 7 124 10C123.106 12.6833 122.5 14.5 121 16.5L106.5 36.5Z" fill="url(#paint2_radial)"/>
<path d="M6.1875 20.5811H8.05664L13.8145 36.2002H11.4512L7.12207 23.5996L2.79297 36.2002H0.429688L6.1875 20.5811ZM3.08301 30.6895H11.3008V32.7734H3.08301V30.6895ZM15.0932 34.1162C15.7234 34.1162 16.2319 33.973 16.6186 33.6865C17.0125 33.3929 17.3025 32.9417 17.4887 32.333C17.6749 31.7171 17.768 30.9186 17.768 29.9375V20.5811H19.9594V29.8086C19.9594 31.3125 19.7983 32.5335 19.476 33.4717C19.1538 34.4027 18.6524 35.0902 17.9721 35.5342C17.2918 35.9782 16.4038 36.2002 15.308 36.2002H15.0932V34.1162ZM25.4594 20.5811H27.6508V36.2002H25.4594V20.5811ZM19.1323 20.5811H26.6196V22.665H19.1323V20.5811ZM32.2167 34.1162H37.1581C37.6594 34.1162 38.0855 34.016 38.4364 33.8154C38.7945 33.6149 39.0666 33.3213 39.2528 32.9346C39.439 32.5479 39.5321 32.0824 39.5321 31.5381C39.5321 30.9867 39.439 30.5176 39.2528 30.1309C39.0666 29.7441 38.7945 29.4505 38.4364 29.25C38.0855 29.0423 37.6594 28.9385 37.1581 28.9385H32.2167V26.8545H37.0829C38.0712 26.8545 38.9162 27.0371 39.618 27.4023C40.3199 27.7676 40.8534 28.3011 41.2186 29.0029C41.591 29.7048 41.7772 30.5498 41.7772 31.5381C41.7772 32.5192 41.591 33.3607 41.2186 34.0625C40.8534 34.7572 40.3199 35.2871 39.618 35.6523C38.9162 36.0176 38.0712 36.2002 37.0829 36.2002H32.2167V34.1162ZM31.0888 20.5811H33.2802V36.2002H31.0888V20.5811ZM48.3519 29.916C47.4567 29.916 46.6654 29.7227 45.9779 29.3359C45.2975 28.9492 44.7676 28.4049 44.388 27.7031C44.0085 26.9941 43.8187 26.1742 43.8187 25.2432C43.8187 24.3122 44.0049 23.4958 44.3773 22.7939C44.7568 22.085 45.2868 21.5371 45.9671 21.1504C46.6546 20.7637 47.4495 20.5703 48.3519 20.5703H53.4866V22.6543H48.2659C47.8434 22.6543 47.471 22.7617 47.1488 22.9766C46.8336 23.1914 46.5866 23.4958 46.4075 23.8896C46.2357 24.2764 46.1497 24.7275 46.1497 25.2432C46.1497 25.7588 46.2357 26.2135 46.4075 26.6074C46.5866 26.9941 46.8372 27.2949 47.1595 27.5098C47.4818 27.7246 47.8506 27.832 48.2659 27.832H53.4866V29.916H48.3519ZM47.9114 28.9385L50.0921 29.4326L46.3001 36.2002H43.7005L47.9114 28.9385ZM52.2513 20.5703H54.4427V36.2002H52.2513V20.5703ZM66.7537 20.5811H68.9451V36.2002H66.7537V20.5811ZM57.8806 20.5811H60.072V36.2002H57.8806V20.5811ZM59.2449 27.4668H67.9138V29.5508H59.2449V27.4668ZM77.4855 36.3613C76.4042 36.3613 75.4517 36.1214 74.6281 35.6416C73.8117 35.1618 73.1779 34.4814 72.7268 33.6006C72.2756 32.7197 72.05 31.6992 72.05 30.5391V26.2529C72.05 25.0928 72.2756 24.0723 72.7268 23.1914C73.1779 22.3105 73.8117 21.6302 74.6281 21.1504C75.4517 20.6634 76.4042 20.4199 77.4855 20.4199C78.3807 20.4199 79.2043 20.6133 79.9563 21C80.7082 21.3796 81.3348 21.9202 81.8361 22.6221C82.3446 23.3239 82.6883 24.1367 82.8674 25.0605H80.6223C80.4862 24.5736 80.257 24.1403 79.9348 23.7607C79.6197 23.374 79.2473 23.0768 78.8176 22.8691C78.3879 22.6615 77.9439 22.5576 77.4855 22.5576C76.8482 22.5576 76.2896 22.7116 75.8098 23.0195C75.33 23.3275 74.9576 23.7607 74.6926 24.3193C74.4276 24.8708 74.2951 25.5153 74.2951 26.2529V30.5391C74.2951 31.2695 74.4276 31.9141 74.6926 32.4727C74.9576 33.0312 75.33 33.4645 75.8098 33.7725C76.2896 34.0732 76.8482 34.2236 77.4855 34.2236C77.951 34.2236 78.3951 34.127 78.8176 33.9336C79.2473 33.7402 79.6197 33.4538 79.9348 33.0742C80.257 32.6947 80.4862 32.2435 80.6223 31.7207H82.8674C82.6883 32.6445 82.3446 33.4574 81.8361 34.1592C81.3277 34.861 80.6975 35.4053 79.9455 35.792C79.1936 36.1715 78.3736 36.3613 77.4855 36.3613Z" fill="url(#paint3_radial)"/>
<defs>
<linearGradient id="paint0_linear" x1="116.5" y1="30.5181" x2="120.5" y2="30.5181" gradientUnits="userSpaceOnUse">
<stop stop-color="white"/>
<stop offset="0.484375" stop-color="white"/>
<stop offset="1" stop-color="#B1AFAF"/>
</linearGradient>
<linearGradient id="paint1_linear" x1="90" y1="25.0181" x2="121" y2="25.0181" gradientUnits="userSpaceOnUse">
<stop stop-color="#858585"/>
<stop offset="0.637465" stop-color="white"/>
<stop offset="1" stop-color="#A5A4A4"/>
</linearGradient>
<radialGradient id="paint2_radial" cx="0" cy="0" r="1" gradientUnits="userSpaceOnUse" gradientTransform="translate(117.374 18.2591) rotate(90) scale(17.7591 10.8744)">
<stop stop-color="#E9C897"/>
<stop offset="1" stop-color="#CD8313"/>
</radialGradient>
<radialGradient id="paint3_radial" cx="0" cy="0" r="1" gradientUnits="userSpaceOnUse" gradientTransform="translate(43.5 25.4502) rotate(90) scale(11.25 43.5)">
<stop stop-color="white"/>
<stop offset="1" stop-color="#CECECE"/>
</radialGradient>
</defs>
</svg>
