<svg width="123" height="37" viewBox="0 0 123 37" fill="none" xmlns="http://www.w3.org/2000/svg">
<path d="M114 32.5181V25.2681L110.5 30.0181V32.5181H114Z" fill="url(#paint0_linear)"/>
<path d="M82 36.2681H87.5L100.5 19.0181V35.0181L114 17.0181V11.0181L104 24.0181V7.51807L82 36.2681Z" fill="url(#paint1_linear)"/>
<path d="M100.5 36.0182H120V33.5181H107C109.667 30.0181 115.2 22.1181 118 18.5181C121.5 14.0181 125 5.01819 119 1.51819C114.2 -1.28181 108.667 2.35153 106.5 4.51819V8.01815C117 -0.481847 118.5 6.01807 118 9.51807C117.6 12.3181 116.5 14.5 115 16.5L100.5 36.0182Z" fill="url(#paint2_radial)"/>
<path d="M5.90625 21.0908H7.69043L13.1865 36H10.9307L6.79834 23.9722L2.66602 36H0.410156L5.90625 21.0908ZM2.94287 30.7397H10.7871V32.729H2.94287V30.7397ZM14.4071 34.0107C15.0087 34.0107 15.4941 33.874 15.8632 33.6006C16.2392 33.3203 16.516 32.8896 16.6938 32.3086C16.8715 31.7207 16.9604 30.9585 16.9604 30.022V21.0908H19.0522V29.8989C19.0522 31.3345 18.8984 32.5 18.5907 33.3955C18.2831 34.2842 17.8046 34.9404 17.1552 35.3643C16.5058 35.7881 15.6581 36 14.6122 36H14.4071V34.0107ZM24.3022 21.0908H26.394V36H24.3022V21.0908ZM18.2626 21.0908H25.4096V23.0801H18.2626V21.0908ZM30.7523 34.0107H35.4691C35.9476 34.0107 36.3543 33.915 36.6893 33.7236C37.0311 33.5322 37.2909 33.252 37.4686 32.8828C37.6463 32.5137 37.7352 32.0693 37.7352 31.5498C37.7352 31.0234 37.6463 30.5757 37.4686 30.2065C37.2909 29.8374 37.0311 29.5571 36.6893 29.3657C36.3543 29.1675 35.9476 29.0684 35.4691 29.0684H30.7523V27.0791H35.3973C36.3407 27.0791 37.1473 27.2534 37.8172 27.6021C38.4871 27.9507 38.9964 28.46 39.3451 29.1299C39.7005 29.7998 39.8783 30.6064 39.8783 31.5498C39.8783 32.4863 39.7005 33.2896 39.3451 33.9595C38.9964 34.6226 38.4871 35.1284 37.8172 35.4771C37.1473 35.8257 36.3407 36 35.3973 36H30.7523V34.0107ZM29.6756 21.0908H31.7674V36H29.6756V21.0908ZM46.1541 30.0015C45.2996 30.0015 44.5442 29.8169 43.888 29.4478C43.2385 29.0786 42.7327 28.5591 42.3704 27.8892C42.0081 27.2124 41.8269 26.4297 41.8269 25.541C41.8269 24.6523 42.0047 23.873 42.3601 23.2031C42.7224 22.5264 43.2283 22.0034 43.8777 21.6343C44.5339 21.2651 45.2927 21.0806 46.1541 21.0806H51.0554V23.0698H46.072C45.6687 23.0698 45.3132 23.1724 45.0056 23.3774C44.7048 23.5825 44.469 23.873 44.2981 24.249C44.134 24.6182 44.052 25.0488 44.052 25.541C44.052 26.0332 44.134 26.4673 44.2981 26.8433C44.469 27.2124 44.7083 27.4995 45.0159 27.7046C45.3235 27.9097 45.6755 28.0122 46.072 28.0122H51.0554V30.0015H46.1541ZM45.7337 29.0684L47.8152 29.54L44.1956 36H41.7141L45.7337 29.0684ZM49.8762 21.0806H51.968V36H49.8762V21.0806ZM63.7194 21.0908H65.8112V36H63.7194V21.0908ZM55.2497 21.0908H57.3415V36H55.2497V21.0908ZM56.5519 27.6636H64.8268V29.6528H56.5519V27.6636ZM73.9635 36.1538C72.9313 36.1538 72.0221 35.9248 71.2359 35.4668C70.4566 35.0088 69.8517 34.3594 69.421 33.5186C68.9903 32.6777 68.775 31.7036 68.775 30.5962V26.5049C68.775 25.3975 68.9903 24.4233 69.421 23.5825C69.8517 22.7417 70.4566 22.0923 71.2359 21.6343C72.0221 21.1694 72.9313 20.937 73.9635 20.937C74.818 20.937 75.6041 21.1216 76.3219 21.4907C77.0396 21.853 77.6378 22.3691 78.1163 23.0391C78.6017 23.709 78.9298 24.4849 79.1007 25.3667H76.9576C76.8277 24.9019 76.609 24.4883 76.3014 24.126C76.0006 23.7568 75.6451 23.4731 75.235 23.2749C74.8248 23.0767 74.401 22.9775 73.9635 22.9775C73.3551 22.9775 72.8219 23.1245 72.3639 23.4185C71.9059 23.7124 71.5504 24.126 71.2975 24.6592C71.0445 25.1855 70.9181 25.8008 70.9181 26.5049V30.5962C70.9181 31.2935 71.0445 31.9087 71.2975 32.4419C71.5504 32.9751 71.9059 33.3887 72.3639 33.6826C72.8219 33.9697 73.3551 34.1133 73.9635 34.1133C74.4078 34.1133 74.8316 34.021 75.235 33.8364C75.6451 33.6519 76.0006 33.3784 76.3014 33.0161C76.609 32.6538 76.8277 32.2231 76.9576 31.7241H79.1007C78.9298 32.606 78.6017 33.3818 78.1163 34.0518C77.631 34.7217 77.0294 35.2412 76.3116 35.6104C75.5938 35.9727 74.8111 36.1538 73.9635 36.1538Z" fill="url(#paint3_radial)"/>
<path d="M1.79321 15.8903H3.0874C3.20986 15.8903 3.31748 15.8616 3.41025 15.8041C3.50303 15.7465 3.57446 15.6649 3.62456 15.5591C3.67651 15.4534 3.70249 15.3318 3.70249 15.1945C3.70249 15.0554 3.67651 14.9329 3.62456 14.8271C3.57446 14.7214 3.50303 14.6397 3.41025 14.5822C3.31748 14.5229 3.20986 14.4932 3.0874 14.4932H1.79321V13.9532H3.06792C3.30913 13.9532 3.52158 14.0052 3.70527 14.1091C3.88896 14.2111 4.03091 14.3559 4.1311 14.5433C4.23315 14.7307 4.28418 14.9478 4.28418 15.1945C4.28418 15.4413 4.23315 15.6584 4.1311 15.8458C4.03091 16.0313 3.88896 16.1751 3.70527 16.2772C3.52158 16.3792 3.30913 16.4303 3.06792 16.4303H1.79321V15.8903ZM1.50098 13.9532H2.06875V18H1.50098V13.9532ZM5.10934 13.9532H5.67712V18H5.10934V13.9532ZM5.38488 17.4601H7.70886V18H5.38488V17.4601ZM5.38488 15.7206H7.4027V16.2605H5.38488V15.7206ZM5.38488 13.9532H7.70886V14.4932H5.38488V13.9532ZM11.4814 13.9532H12.013V18H11.4592V14.9691L11.487 15.1472L10.4906 17.4378H10.0954L9.09901 15.2029L9.12684 14.9691V18H8.57298V13.9532H9.10458L10.293 16.6251L11.4814 13.9532ZM14.4107 18.0417C14.1287 18.0417 13.88 17.9805 13.6648 17.8581C13.4496 17.7337 13.2826 17.5593 13.1638 17.3348C13.0469 17.1084 12.9885 16.8468 12.9885 16.55V15.4033C12.9885 15.1064 13.0469 14.8457 13.1638 14.6212C13.2826 14.3948 13.4496 14.2204 13.6648 14.0979C13.88 13.9736 14.1287 13.9115 14.4107 13.9115C14.6927 13.9115 14.9414 13.9736 15.1566 14.0979C15.3718 14.2204 15.5379 14.3948 15.6548 14.6212C15.7735 14.8457 15.8329 15.1064 15.8329 15.4033V16.55C15.8329 16.8468 15.7735 17.1084 15.6548 17.3348C15.5379 17.5593 15.3718 17.7337 15.1566 17.8581C14.9414 17.9805 14.6927 18.0417 14.4107 18.0417ZM14.4107 17.4823C14.5777 17.4823 14.7243 17.4452 14.8504 17.371C14.9785 17.2949 15.0768 17.1882 15.1455 17.0509C15.216 16.9118 15.2512 16.7513 15.2512 16.5694V15.3838C15.2512 15.202 15.216 15.0424 15.1455 14.9051C15.0768 14.7659 14.9785 14.6592 14.8504 14.585C14.7243 14.5089 14.5777 14.4709 14.4107 14.4709C14.2437 14.4709 14.0962 14.5089 13.9682 14.585C13.842 14.6592 13.7437 14.7659 13.6731 14.9051C13.6045 15.0424 13.5702 15.202 13.5702 15.3838V16.5694C13.5702 16.7513 13.6045 16.9118 13.6731 17.0509C13.7437 17.1882 13.842 17.2949 13.9682 17.371C14.0962 17.4452 14.2437 17.4823 14.4107 17.4823ZM19.1073 13.9532H19.6751V18H19.1073V13.9532ZM16.8084 13.9532H17.3761V18H16.8084V13.9532ZM17.1618 15.7373H19.4079V16.2772H17.1618V15.7373ZM21.3213 14.2844H21.8891V18H21.3213V14.2844ZM20.1774 13.9532H23.0329V14.4932H20.1774V13.9532ZM25.8342 13.9532H26.402V18H25.8342V13.9532ZM23.5353 13.9532H24.103V18H23.5353V13.9532ZM23.8887 15.7373H26.1348V16.2772H23.8887V15.7373ZM28.7996 18.0417C28.5176 18.0417 28.269 17.9805 28.0537 17.8581C27.8385 17.7337 27.6715 17.5593 27.5528 17.3348C27.4359 17.1084 27.3774 16.8468 27.3774 16.55V15.4033C27.3774 15.1064 27.4359 14.8457 27.5528 14.6212C27.6715 14.3948 27.8385 14.2204 28.0537 14.0979C28.269 13.9736 28.5176 13.9115 28.7996 13.9115C29.0817 13.9115 29.3303 13.9736 29.5455 14.0979C29.7608 14.2204 29.9268 14.3948 30.0437 14.6212C30.1625 14.8457 30.2219 15.1064 30.2219 15.4033V16.55C30.2219 16.8468 30.1625 17.1084 30.0437 17.3348C29.9268 17.5593 29.7608 17.7337 29.5455 17.8581C29.3303 17.9805 29.0817 18.0417 28.7996 18.0417ZM28.7996 17.4823C28.9666 17.4823 29.1132 17.4452 29.2394 17.371C29.3674 17.2949 29.4657 17.1882 29.5344 17.0509C29.6049 16.9118 29.6402 16.7513 29.6402 16.5694V15.3838C29.6402 15.202 29.6049 15.0424 29.5344 14.9051C29.4657 14.7659 29.3674 14.6592 29.2394 14.585C29.1132 14.5089 28.9666 14.4709 28.7996 14.4709C28.6326 14.4709 28.4851 14.5089 28.3571 14.585C28.2309 14.6592 28.1326 14.7659 28.0621 14.9051C27.9934 15.0424 27.9591 15.202 27.9591 15.3838V16.5694C27.9591 16.7513 27.9934 16.9118 28.0621 17.0509C28.1326 17.1882 28.2309 17.2949 28.3571 17.371C28.4851 17.4452 28.6326 17.4823 28.7996 17.4823ZM34.0431 16.28V16.8199H32.1728V16.28H34.0431ZM37.3745 18.0417C37.0943 18.0417 36.8475 17.9796 36.6341 17.8553C36.4226 17.731 36.2584 17.5547 36.1415 17.3265C36.0246 17.0982 35.9662 16.8338 35.9662 16.5333V15.4228C35.9662 15.1222 36.0246 14.8578 36.1415 14.6295C36.2584 14.4013 36.4226 14.225 36.6341 14.1007C36.8475 13.9746 37.0943 13.9115 37.3745 13.9115C37.6064 13.9115 37.8198 13.9616 38.0146 14.0618C38.2094 14.1601 38.3718 14.3002 38.5017 14.482C38.6334 14.6639 38.7225 14.8745 38.7688 15.1138H38.1872C38.1519 14.9876 38.0925 14.8754 38.009 14.7771C37.9274 14.6769 37.8309 14.5999 37.7196 14.546C37.6082 14.4922 37.4932 14.4653 37.3745 14.4653C37.2093 14.4653 37.0646 14.5052 36.9403 14.585C36.816 14.6648 36.7195 14.7771 36.6508 14.9218C36.5822 15.0646 36.5478 15.2316 36.5478 15.4228V16.5333C36.5478 16.7225 36.5822 16.8895 36.6508 17.0342C36.7195 17.179 36.816 17.2912 36.9403 17.371C37.0646 17.4489 37.2093 17.4879 37.3745 17.4879C37.4951 17.4879 37.6101 17.4628 37.7196 17.4127C37.8309 17.3626 37.9274 17.2884 38.009 17.1901C38.0925 17.0917 38.1519 16.9749 38.1872 16.8394H38.7688C38.7225 17.0788 38.6334 17.2894 38.5017 17.4712C38.3699 17.653 38.2066 17.794 38.0118 17.8942C37.817 17.9926 37.6045 18.0417 37.3745 18.0417ZM40.223 14.2844H40.7908V18H40.223V14.2844ZM39.0791 13.9532H41.9347V14.4932H39.0791V13.9532ZM42.7292 15.8903H44.0234C44.1459 15.8903 44.2535 15.8616 44.3463 15.8041C44.439 15.7465 44.5105 15.6649 44.5606 15.5591C44.6125 15.4534 44.6385 15.3318 44.6385 15.1945C44.6385 15.0554 44.6125 14.9329 44.5606 14.8271C44.5105 14.7214 44.439 14.6397 44.3463 14.5822C44.2535 14.5229 44.1459 14.4932 44.0234 14.4932H42.7292V13.9532H44.0039C44.2451 13.9532 44.4576 14.0052 44.6413 14.1091C44.825 14.2111 44.9669 14.3559 45.0671 14.5433C45.1692 14.7307 45.2202 14.9478 45.2202 15.1945C45.2202 15.4413 45.1692 15.6584 45.0671 15.8458C44.9669 16.0313 44.825 16.1751 44.6413 16.2772C44.4576 16.3792 44.2451 16.4303 44.0039 16.4303H42.7292V15.8903ZM42.437 13.9532H43.0048V18H42.437V13.9532ZM47.3284 18.0417C47.0464 18.0417 46.7978 17.9805 46.5825 17.8581C46.3673 17.7337 46.2003 17.5593 46.0815 17.3348C45.9646 17.1084 45.9062 16.8468 45.9062 16.55V15.4033C45.9062 15.1064 45.9646 14.8457 46.0815 14.6212C46.2003 14.3948 46.3673 14.2204 46.5825 14.0979C46.7978 13.9736 47.0464 13.9115 47.3284 13.9115C47.6104 13.9115 47.8591 13.9736 48.0743 14.0979C48.2895 14.2204 48.4556 14.3948 48.5725 14.6212C48.6913 14.8457 48.7506 15.1064 48.7506 15.4033V16.55C48.7506 16.8468 48.6913 17.1084 48.5725 17.3348C48.4556 17.5593 48.2895 17.7337 48.0743 17.8581C47.8591 17.9805 47.6104 18.0417 47.3284 18.0417ZM47.3284 17.4823C47.4954 17.4823 47.642 17.4452 47.7682 17.371C47.8962 17.2949 47.9945 17.1882 48.0632 17.0509C48.1337 16.9118 48.1689 16.7513 48.1689 16.5694V15.3838C48.1689 15.202 48.1337 15.0424 48.0632 14.9051C47.9945 14.7659 47.8962 14.6592 47.7682 14.585C47.642 14.5089 47.4954 14.4709 47.3284 14.4709C47.1614 14.4709 47.0139 14.5089 46.8859 14.585C46.7597 14.6592 46.6614 14.7659 46.5909 14.9051C46.5222 15.0424 46.4879 15.202 46.4879 15.3838V16.5694C46.4879 16.7513 46.5222 16.9118 46.5909 17.0509C46.6614 17.1882 46.7597 17.2949 46.8859 17.371C47.0139 17.4452 47.1614 17.4823 47.3284 17.4823ZM52.153 17.9972V14.816L52.2198 14.8884L50.1909 17.9972H49.7261V13.9532H50.2883V17.1817L50.2215 17.1094L52.256 13.9532H52.7153V17.9972H52.153ZM54.3615 14.2844H54.9292V18H54.3615V14.2844ZM53.2176 13.9532H56.0731V14.4932H53.2176V13.9532ZM56.5754 13.9532H57.1432V18H56.5754V13.9532ZM56.851 17.4601H59.175V18H56.851V17.4601ZM56.851 15.7206H58.8688V16.2605H56.851V15.7206ZM56.851 13.9532H59.175V14.4932H56.851V13.9532ZM59.8721 17.4601C60.0354 17.4601 60.1671 17.4229 60.2673 17.3487C60.3694 17.2727 60.4445 17.1558 60.4927 16.998C60.541 16.8385 60.5651 16.6316 60.5651 16.3774V13.9532H61.1329V16.344C61.1329 16.7336 61.0911 17.05 61.0076 17.2931C60.9241 17.5343 60.7943 17.7124 60.618 17.8274C60.4417 17.9425 60.2116 18 59.9278 18H59.8721V17.4601ZM62.5579 13.9532H63.1257V18H62.5579V13.9532ZM60.9186 13.9532H62.8585V14.4932H60.9186V13.9532ZM64.4796 17.4601H65.7599C65.8898 17.4601 66.0002 17.4341 66.0911 17.3821C66.1839 17.3302 66.2544 17.2541 66.3026 17.1539C66.3509 17.0537 66.375 16.9331 66.375 16.7921C66.375 16.6492 66.3509 16.5277 66.3026 16.4275C66.2544 16.3273 66.1839 16.2512 66.0911 16.1993C66.0002 16.1455 65.8898 16.1186 65.7599 16.1186H64.4796V15.5786H65.7404C65.9965 15.5786 66.2154 15.6259 66.3973 15.7206C66.5791 15.8152 66.7173 15.9534 66.812 16.1353C66.9084 16.3171 66.9567 16.536 66.9567 16.7921C66.9567 17.0463 66.9084 17.2643 66.812 17.4461C66.7173 17.6261 66.5791 17.7634 66.3973 17.8581C66.2154 17.9527 65.9965 18 65.7404 18H64.4796V17.4601ZM64.1874 13.9532H64.7552V18H64.1874V13.9532ZM70.1615 13.9532H70.7293V18H70.1615V13.9532ZM67.8626 13.9532H68.4303V18H67.8626V13.9532ZM68.216 15.7373H70.4621V16.2772H68.216V15.7373ZM72.0804 17.4601H73.2494C73.3793 17.4601 73.4897 17.4341 73.5806 17.3821C73.6734 17.3302 73.7439 17.2541 73.7921 17.1539C73.8404 17.0537 73.8645 16.9331 73.8645 16.7921C73.8645 16.6492 73.8404 16.5277 73.7921 16.4275C73.7439 16.3273 73.6734 16.2512 73.5806 16.1993C73.4897 16.1455 73.3793 16.1186 73.2494 16.1186H72.0804V15.5786H73.2299C73.486 15.5786 73.7049 15.6259 73.8867 15.7206C74.0686 15.8152 74.2068 15.9534 74.3014 16.1353C74.3979 16.3171 74.4462 16.536 74.4462 16.7921C74.4462 17.0463 74.3979 17.2643 74.3014 17.4461C74.2068 17.6261 74.0686 17.7634 73.8867 17.8581C73.7049 17.9527 73.486 18 73.2299 18H72.0804V17.4601ZM71.7882 13.9532H72.356V18H71.7882V13.9532ZM75.5483 18H74.9805V13.9532H75.5483V18ZM79.037 17.9972V14.816L79.1038 14.8884L77.0748 17.9972H76.6101V13.9532H77.1723V17.1817L77.1055 17.1094L79.14 13.9532H79.5992V17.9972H79.037ZM79.0287 12.8149C79.0287 13.0858 78.9479 13.2955 78.7865 13.4439C78.6251 13.5905 78.3969 13.6638 78.1019 13.6638H78.0796C77.7846 13.6638 77.5563 13.5905 77.3949 13.4439C77.2335 13.2955 77.1528 13.0858 77.1528 12.8149L77.612 12.8205C77.612 12.9596 77.6528 13.0682 77.7345 13.1461C77.8161 13.2222 77.9311 13.2602 78.0796 13.2602H78.1019C78.2503 13.2602 78.3653 13.2222 78.447 13.1461C78.5286 13.0682 78.5694 12.9596 78.5694 12.8205L79.0287 12.8149Z" fill="url(#paint4_radial)"/>
<defs>
<linearGradient id="paint0_linear" x1="110.5" y1="30.5181" x2="114.5" y2="30.5181" gradientUnits="userSpaceOnUse">
<stop stop-color="white"/>
<stop offset="0.484375" stop-color="white"/>
<stop offset="1" stop-color="#D6D6D6"/>
</linearGradient>
<linearGradient id="paint1_linear" x1="84" y1="25.0181" x2="115" y2="25.0181" gradientUnits="userSpaceOnUse">
<stop stop-color="#858585"/>
<stop offset="0.637465" stop-color="white"/>
<stop offset="1" stop-color="#A5A4A4"/>
</linearGradient>
<radialGradient id="paint2_radial" cx="0" cy="0" r="1" gradientUnits="userSpaceOnUse" gradientTransform="translate(111.374 18.2591) rotate(90) scale(17.7591 10.8744)">
<stop stop-color="#E9C897"/>
<stop offset="1" stop-color="#CD8313"/>
</radialGradient>
<radialGradient id="paint3_radial" cx="0" cy="0" r="1" gradientUnits="userSpaceOnUse" gradientTransform="translate(40.5 25.5) rotate(90) scale(10.5 40.5)">
<stop stop-color="white"/>
<stop offset="1" stop-color="#CECECE"/>
</radialGradient>
<radialGradient id="paint4_radial" cx="0" cy="0" r="1" gradientUnits="userSpaceOnUse" gradientTransform="translate(41 15.5) rotate(90) scale(3.5 40)">
<stop stop-color="#F8CA86"/>
<stop offset="1" stop-color="#EEAB47"/>
</radialGradient>
</defs>
</svg>
