<svg width="1119" height="649" viewBox="0 0 1119 649" fill="none" xmlns="http://www.w3.org/2000/svg">
<circle cx="549.691" cy="240.941" r="214.685" stroke="url(#paint0_linear)" stroke-width="4"/>
<circle cx="549.691" cy="237.707" r="163.131" fill="url(#paint1_linear)" stroke="url(#paint2_linear)" stroke-width="2"/>
<path d="M464.291 208.397H470.86V214.967H464.291V208.397Z" fill="white"/>
<path d="M477.429 208.397H483.999V214.967H477.429V208.397Z" fill="white"/>
<path d="M470.86 182.12H477.429V188.689H470.86V182.12Z" fill="white"/>
<path d="M483.999 182.12H490.568V188.689H483.999V182.12Z" fill="white"/>
<path d="M490.568 208.397H497.137V214.967H490.568V208.397Z" fill="white"/>
<path d="M533.268 185.405H539.838V191.975H533.268V185.405Z" fill="white"/>
<path d="M546.407 185.405H552.976V191.975H546.407V185.405Z" fill="white"/>
<path d="M559.545 185.405H566.115V191.975H559.545V185.405Z" fill="white"/>
<path d="M533.268 198.544H539.838V205.113H533.268V198.544Z" fill="white"/>
<path d="M546.407 198.544H552.976V205.113H546.407V198.544Z" fill="white"/>
<path d="M559.545 198.544H566.115V205.113H559.545V198.544Z" fill="white"/>
<path d="M533.268 211.683H539.838V218.252H533.268V211.683Z" fill="white"/>
<path d="M546.407 211.683H552.976V218.252H546.407V211.683Z" fill="white"/>
<path d="M559.545 211.683H566.115V218.252H559.545V211.683Z" fill="white"/>
<path d="M464.291 221.536H470.86V228.105H464.291V221.536Z" fill="white"/>
<path d="M477.429 221.536H483.999V228.105H477.429V221.536Z" fill="white"/>
<path d="M490.568 221.536H497.137V228.105H490.568V221.536Z" fill="white"/>
<path d="M464.291 234.675H470.86V241.244H464.291V234.675Z" fill="white"/>
<path d="M477.429 234.675H483.999V241.244H477.429V234.675Z" fill="white"/>
<path d="M490.568 234.675H497.137V241.244H490.568V234.675Z" fill="white"/>
<path d="M464.291 247.813H470.86V254.383H464.291V247.813Z" fill="white"/>
<path d="M477.429 247.813H483.999V254.383H477.429V247.813Z" fill="white"/>
<path d="M490.568 247.813H497.137V254.383H490.568V247.813Z" fill="white"/>
<path d="M464.291 260.952H470.86V267.521H464.291V260.952Z" fill="white"/>
<path d="M477.429 260.952H483.999V267.521H477.429V260.952Z" fill="white"/>
<path d="M490.568 260.952H497.137V267.521H490.568V260.952Z" fill="white"/>
<path d="M520.13 264.236H526.699V270.806H520.13V264.236Z" fill="white"/>
<path d="M533.268 264.236H539.838V270.806H533.268V264.236Z" fill="white"/>
<path d="M546.407 264.236H552.976V270.806H546.407V264.236Z" fill="white"/>
<path d="M559.545 264.236H566.115V270.806H559.545V264.236Z" fill="white"/>
<path d="M572.684 264.236H579.253V270.806H572.684V264.236Z" fill="white"/>
<path d="M520.13 277.375H526.699V283.944H520.13V277.375Z" fill="white"/>
<path d="M533.268 277.375H539.838V283.944H533.268V277.375Z" fill="white"/>
<path d="M546.407 277.375H552.976V283.944H546.407V277.375Z" fill="white"/>
<path d="M559.545 277.375H566.115V283.944H559.545V277.375Z" fill="white"/>
<path d="M572.684 277.375H579.253V283.944H572.684V277.375Z" fill="white"/>
<path d="M464.291 274.09H470.86V280.659H464.291V274.09Z" fill="white"/>
<path d="M477.429 274.09H483.999V280.659H477.429V274.09Z" fill="white"/>
<path d="M490.568 274.09H497.137V280.659H490.568V274.09Z" fill="white"/>
<path d="M464.291 287.229H470.86V293.798H464.291V287.229Z" fill="white"/>
<path d="M477.429 287.229H483.999V293.798H477.429V287.229Z" fill="white"/>
<path d="M490.568 287.229H497.137V293.798H490.568V287.229Z" fill="white"/>
<path d="M464.291 300.367H470.86V306.936H464.291V300.367Z" fill="white"/>
<path d="M477.429 300.367H483.999V306.936H477.429V300.367Z" fill="white"/>
<path d="M490.568 300.367H497.137V306.936H490.568V300.367Z" fill="white"/>
<path d="M644.946 195.259H641.661V172.267C641.661 171.395 641.315 170.56 640.699 169.944C640.083 169.328 639.248 168.982 638.377 168.982H598.961C598.09 168.982 597.254 169.328 596.638 169.944C596.022 170.56 595.676 171.395 595.676 172.267V195.259H592.392C591.521 195.259 590.685 195.605 590.069 196.221C589.453 196.837 589.107 197.673 589.107 198.544V248.883L582.538 245.346V175.551C582.538 174.956 582.376 174.372 582.07 173.861L572.216 157.438C571.924 156.952 571.511 156.549 571.018 156.27C570.524 155.99 569.966 155.843 569.399 155.843H566.115V142.705C566.115 141.834 565.768 140.998 565.153 140.382C564.537 139.766 563.701 139.42 562.83 139.42H552.976V122.997H546.407V139.42H536.553C535.682 139.42 534.846 139.766 534.23 140.382C533.614 140.998 533.268 141.834 533.268 142.705V155.843H529.984C529.416 155.843 528.859 155.99 528.365 156.27C527.872 156.549 527.459 156.952 527.167 157.438L517.313 173.861C517.007 174.372 516.845 174.956 516.845 175.551V245.346L510.276 248.883V198.544C510.276 197.673 509.93 196.837 509.314 196.221C508.698 195.605 507.862 195.259 506.991 195.259H503.707V172.267C503.706 171.395 503.36 170.56 502.744 169.944C502.128 169.328 501.293 168.982 500.422 168.982H461.006C460.135 168.982 459.3 169.328 458.684 169.944C458.068 170.56 457.722 171.395 457.722 172.267V195.259H454.437C453.566 195.259 452.73 195.605 452.114 196.221C451.498 196.837 451.152 197.673 451.152 198.544V316.791C451.152 317.662 451.498 318.497 452.114 319.113C452.73 319.729 453.566 320.075 454.437 320.075H644.946C645.817 320.075 646.652 319.729 647.268 319.113C647.884 318.497 648.23 317.662 648.231 316.791V198.544C648.23 197.673 647.884 196.837 647.268 196.221C646.652 195.605 645.817 195.259 644.946 195.259ZM602.246 175.551H635.092V195.259H602.246V175.551ZM562.83 313.506H536.553V297.083H562.83V313.506ZM566.115 290.514H533.268C532.397 290.514 531.562 290.86 530.946 291.476C530.33 292.092 529.984 292.927 529.984 293.798V313.506H510.276V257.667H589.107V313.506H569.399V293.798C569.399 292.927 569.053 292.092 568.437 291.476C567.821 290.86 566.986 290.514 566.115 290.514ZM520.019 251.098L549.691 235.121L579.364 251.098H520.019ZM539.838 145.99H559.545V155.843H539.838V145.99ZM531.843 162.413H567.54L573.452 172.267H525.931L531.843 162.413ZM523.414 178.836H575.969V241.809L551.249 228.498C550.77 228.24 550.235 228.105 549.691 228.105C549.148 228.105 548.613 228.24 548.134 228.498L523.414 241.809V178.836ZM464.291 175.551H497.137V195.259H464.291V175.551ZM457.722 201.828H503.707V313.506H457.722V201.828ZM641.661 313.506H595.676V201.828H641.661V313.506Z" fill="white"/>
<path d="M628.523 208.397H635.092V214.967H628.523V208.397Z" fill="white"/>
<path d="M615.384 208.397H621.953V214.967H615.384V208.397Z" fill="white"/>
<path d="M621.953 182.12H628.523V188.689H621.953V182.12Z" fill="white"/>
<path d="M608.815 182.12H615.384V188.689H608.815V182.12Z" fill="white"/>
<path d="M602.246 208.397H608.815V214.967H602.246V208.397Z" fill="white"/>
<path d="M628.523 221.536H635.092V228.105H628.523V221.536Z" fill="white"/>
<path d="M615.384 221.536H621.953V228.105H615.384V221.536Z" fill="white"/>
<path d="M602.246 221.536H608.815V228.105H602.246V221.536Z" fill="white"/>
<path d="M628.523 234.675H635.092V241.244H628.523V234.675Z" fill="white"/>
<path d="M615.384 234.675H621.953V241.244H615.384V234.675Z" fill="white"/>
<path d="M602.246 234.675H608.815V241.244H602.246V234.675Z" fill="white"/>
<path d="M628.523 247.813H635.092V254.383H628.523V247.813Z" fill="white"/>
<path d="M615.384 247.813H621.953V254.383H615.384V247.813Z" fill="white"/>
<path d="M602.246 247.813H608.815V254.383H602.246V247.813Z" fill="white"/>
<path d="M628.523 260.952H635.092V267.521H628.523V260.952Z" fill="white"/>
<path d="M615.384 260.952H621.953V267.521H615.384V260.952Z" fill="white"/>
<path d="M602.246 260.952H608.815V267.521H602.246V260.952Z" fill="white"/>
<path d="M628.523 274.09H635.092V280.659H628.523V274.09Z" fill="white"/>
<path d="M615.384 274.09H621.953V280.659H615.384V274.09Z" fill="white"/>
<path d="M602.246 274.09H608.815V280.659H602.246V274.09Z" fill="white"/>
<path d="M628.523 287.229H635.092V293.798H628.523V287.229Z" fill="white"/>
<path d="M615.384 287.229H621.953V293.798H615.384V287.229Z" fill="white"/>
<path d="M602.246 287.229H608.815V293.798H602.246V287.229Z" fill="white"/>
<path d="M628.523 300.367H635.092V306.936H628.523V300.367Z" fill="white"/>
<path d="M615.384 300.367H621.953V306.936H615.384V300.367Z" fill="white"/>
<path d="M602.246 300.367H608.815V306.936H602.246V300.367Z" fill="white"/>
<circle cx="701.694" cy="85.7039" r="14.5535" fill="url(#paint3_linear)"/>
<circle cx="337.453" cy="203.344" r="8.48952" fill="url(#paint4_linear)"/>
<circle cx="688.758" cy="403.454" r="10.5108" fill="url(#paint5_linear)"/>
<circle cx="410.625" cy="405.88" r="18.5961" fill="url(#paint6_linear)"/>
<path d="M130.416 176.3H124.716L125.816 163H155.016V150H112.316L108.716 189.4H126.616C139.316 189.4 142.916 193 142.916 198.5C142.916 204.2 137.916 207.6 129.816 207.6C122.516 207.6 115.216 205.3 109.916 201.3L103.516 213.7C110.316 218.5 120.516 221.2 130.216 221.2C150.216 221.2 159.316 210.4 159.316 198C159.316 185.6 151.116 176.3 130.416 176.3Z" fill="#EEAB47"/>
<path d="M32.3538 240.86L32.1138 247.34C31.9638 250.4 31.7838 253.19 29.5638 253.19C29.3538 253.19 29.1138 253.16 28.8738 253.13L28.6338 256.97C29.5638 257.21 30.3438 257.33 31.0638 257.33C35.0538 257.33 35.9838 253.31 36.2238 247.55L36.3738 244.7H41.4738V257H46.1538V240.86H32.3538ZM66.3442 248.99C66.3442 243.8 62.6842 240.62 57.9442 240.62C53.0242 240.62 49.3342 244.1 49.3342 248.93C49.3342 253.73 52.9642 257.24 58.5442 257.24C61.4542 257.24 63.7042 256.34 65.2042 254.63L62.7142 251.93C61.6042 252.98 60.3742 253.49 58.6642 253.49C56.2042 253.49 54.4942 252.26 54.0442 250.25H66.2542C66.2842 249.86 66.3442 249.35 66.3442 248.99ZM57.9742 244.16C60.0742 244.16 61.6042 245.48 61.9342 247.52H53.9842C54.3142 245.45 55.8442 244.16 57.9742 244.16ZM82.9349 240.86H67.3649V244.7H72.8249V257H77.4749V244.7H82.9349V240.86ZM93.9257 257H98.5757V250.97H105.596V257H110.276V240.86H105.596V247.16H98.5757V240.86H93.9257V257ZM121.026 240.62C118.446 240.62 115.836 241.31 114.066 242.57L115.746 245.84C116.916 244.91 118.686 244.34 120.396 244.34C122.916 244.34 124.116 245.51 124.116 247.52H120.396C115.476 247.52 113.466 249.5 113.466 252.35C113.466 255.14 115.716 257.24 119.496 257.24C121.866 257.24 123.546 256.46 124.416 254.99V257H128.796V247.79C128.796 242.9 125.946 240.62 121.026 240.62ZM120.666 254.09C119.016 254.09 118.026 253.31 118.026 252.14C118.026 251.06 118.716 250.25 120.906 250.25H124.116V251.9C123.576 253.37 122.226 254.09 120.666 254.09ZM150.867 240.62C148.707 240.62 146.967 241.31 145.797 242.72V240.86H141.327V262.82H146.007V255.29C147.207 256.61 148.857 257.24 150.867 257.24C155.397 257.24 158.907 254 158.907 248.93C158.907 243.86 155.397 240.62 150.867 240.62ZM150.057 253.4C147.717 253.4 145.947 251.72 145.947 248.93C145.947 246.14 147.717 244.46 150.057 244.46C152.397 244.46 154.167 246.14 154.167 248.93C154.167 251.72 152.397 253.4 150.057 253.4ZM170.677 246.02H166.837V240.86H162.187V257L170.047 257.03C174.547 257.03 177.067 254.96 177.067 251.39C177.067 248 174.907 246.05 170.677 246.02ZM178.807 257H183.457V240.86H178.807V257ZM169.627 253.7H166.837V249.02L169.627 249.05C171.427 249.08 172.417 249.74 172.417 251.33C172.417 252.92 171.427 253.73 169.627 253.7ZM187.969 257H192.619V250.97H199.639V257H204.319V240.86H199.639V247.16H192.619V240.86H187.969V257ZM220.229 257H225.749L219.719 248.6L225.359 240.86H220.379L215.999 247.13H213.479V240.86H208.799V257H213.479V250.88H215.909L220.229 257ZM243.239 248.99C243.239 243.8 239.579 240.62 234.839 240.62C229.919 240.62 226.229 244.1 226.229 248.93C226.229 253.73 229.859 257.24 235.439 257.24C238.349 257.24 240.599 256.34 242.099 254.63L239.609 251.93C238.499 252.98 237.269 253.49 235.559 253.49C233.099 253.49 231.389 252.26 230.939 250.25H243.149C243.179 249.86 243.239 249.35 243.239 248.99ZM234.869 244.16C236.969 244.16 238.499 245.48 238.829 247.52H230.879C231.209 245.45 232.739 244.16 234.869 244.16Z" fill="#33291F"/>
<path d="M190.94 428V452.6H205.34V441.2H228.54L203.44 498H221.04L247.04 438.5V428H190.94ZM276.591 454.3H270.891L271.991 441H301.191V428H258.491L254.891 467.4H272.791C285.491 467.4 289.091 471 289.091 476.5C289.091 482.2 284.091 485.6 275.991 485.6C268.691 485.6 261.391 483.3 256.091 479.3L249.691 491.7C256.491 496.5 266.691 499.2 276.391 499.2C296.391 499.2 305.491 488.4 305.491 476C305.491 463.6 297.291 454.3 276.591 454.3Z" fill="#EEAB47"/>
<path d="M159.008 535H163.658V528.97H170.678V535H175.358V518.86H170.678V525.16H163.658V518.86H159.008V535ZM187.398 535.24C192.528 535.24 196.248 531.79 196.248 526.93C196.248 522.07 192.528 518.62 187.398 518.62C182.268 518.62 178.518 522.07 178.518 526.93C178.518 531.79 182.268 535.24 187.398 535.24ZM187.398 531.4C185.058 531.4 183.258 529.72 183.258 526.93C183.258 524.14 185.058 522.46 187.398 522.46C189.738 522.46 191.508 524.14 191.508 526.93C191.508 529.72 189.738 531.4 187.398 531.4ZM211.797 526.57C213.297 525.88 214.167 524.65 214.167 523.03C214.167 520.39 211.767 518.86 207.717 518.86H199.467V535H208.077C212.517 535 214.647 533.26 214.647 530.41C214.647 528.49 213.687 527.2 211.797 526.57ZM203.757 522.04H207.297C208.917 522.04 209.757 522.58 209.757 523.75C209.757 524.89 208.917 525.49 207.297 525.49H203.757V522.04ZM207.687 531.82H203.757V528.25H207.777C209.487 528.25 210.267 528.82 210.267 530.05C210.267 531.25 209.397 531.82 207.687 531.82ZM225.689 535.24C230.819 535.24 234.539 531.79 234.539 526.93C234.539 522.07 230.819 518.62 225.689 518.62C220.559 518.62 216.809 522.07 216.809 526.93C216.809 531.79 220.559 535.24 225.689 535.24ZM225.689 531.4C223.349 531.4 221.549 529.72 221.549 526.93C221.549 524.14 223.349 522.46 225.689 522.46C228.029 522.46 229.799 524.14 229.799 526.93C229.799 529.72 228.029 531.4 225.689 531.4ZM245.438 535.24C248.828 535.24 251.498 533.74 252.668 531.16L249.038 529.18C248.168 530.74 246.878 531.4 245.408 531.4C243.038 531.4 241.178 529.75 241.178 526.93C241.178 524.11 243.038 522.46 245.408 522.46C246.878 522.46 248.168 523.15 249.038 524.68L252.668 522.73C251.498 520.09 248.828 518.62 245.438 518.62C240.188 518.62 236.438 522.07 236.438 526.93C236.438 531.79 240.188 535.24 245.438 535.24ZM269.013 518.86H253.443V522.7H258.903V535H263.553V522.7H269.013V518.86ZM281.018 518.62C278.858 518.62 277.118 519.31 275.948 520.72V518.86H271.478V540.82H276.158V533.29C277.358 534.61 279.008 535.24 281.018 535.24C285.548 535.24 289.058 532 289.058 526.93C289.058 521.86 285.548 518.62 281.018 518.62ZM280.208 531.4C277.868 531.4 276.098 529.72 276.098 526.93C276.098 524.14 277.868 522.46 280.208 522.46C282.548 522.46 284.318 524.14 284.318 526.93C284.318 529.72 282.548 531.4 280.208 531.4ZM299.898 535.24C305.028 535.24 308.748 531.79 308.748 526.93C308.748 522.07 305.028 518.62 299.898 518.62C294.768 518.62 291.018 522.07 291.018 526.93C291.018 531.79 294.768 535.24 299.898 535.24ZM299.898 531.4C297.558 531.4 295.758 529.72 295.758 526.93C295.758 524.14 297.558 522.46 299.898 522.46C302.238 522.46 304.008 524.14 304.008 526.93C304.008 529.72 302.238 531.4 299.898 531.4ZM327.657 526.99C327.657 521.8 323.997 518.62 319.257 518.62C314.337 518.62 310.647 522.1 310.647 526.93C310.647 531.73 314.277 535.24 319.857 535.24C322.767 535.24 325.017 534.34 326.517 532.63L324.027 529.93C322.917 530.98 321.687 531.49 319.977 531.49C317.517 531.49 315.807 530.26 315.357 528.25H327.567C327.597 527.86 327.657 527.35 327.657 526.99ZM319.287 522.16C321.387 522.16 322.917 523.48 323.247 525.52H315.297C315.627 523.45 317.157 522.16 319.287 522.16ZM342.674 535H348.194L342.164 526.6L347.804 518.86H342.824L338.444 525.13H335.924V518.86H331.244V535H335.924V528.88H338.354L342.674 535Z" fill="#33291F"/>
<path d="M883.871 83.8L899.971 68.6C909.771 59.5 911.671 53.3 911.671 46.5C911.671 33.8 901.271 25.8 885.671 25.8C873.071 25.8 863.271 30.9 857.871 38.8L869.671 46.4C873.071 41.7 878.171 39.4 884.171 39.4C891.571 39.4 895.371 42.6 895.371 48.1C895.371 51.5 894.271 55.1 888.071 61L861.071 86.5V97H913.971V83.8H883.871ZM944.656 53.3H938.956L940.056 40H969.256V27H926.556L922.956 66.4H940.856C953.556 66.4 957.156 70 957.156 75.5C957.156 81.2 952.156 84.6 944.056 84.6C936.756 84.6 929.456 82.3 924.156 78.3L917.756 90.7C924.556 95.5 934.756 98.2 944.456 98.2C964.456 98.2 973.556 87.4 973.556 75C973.556 62.6 965.356 53.3 944.656 53.3Z" fill="#EEAB47"/>
<path d="M859.158 125.57C860.658 124.88 861.528 123.65 861.528 122.03C861.528 119.39 859.128 117.86 855.078 117.86H846.828V134H855.438C859.878 134 862.008 132.26 862.008 129.41C862.008 127.49 861.048 126.2 859.158 125.57ZM851.118 121.04H854.658C856.278 121.04 857.118 121.58 857.118 122.75C857.118 123.89 856.278 124.49 854.658 124.49H851.118V121.04ZM855.048 130.82H851.118V127.25H855.138C856.848 127.25 857.628 127.82 857.628 129.05C857.628 130.25 856.758 130.82 855.048 130.82ZM879.05 117.86H863.48V121.7H868.94V134H873.59V121.7H879.05V117.86ZM888.431 134.24C893.561 134.24 897.281 130.79 897.281 125.93C897.281 121.07 893.561 117.62 888.431 117.62C883.301 117.62 879.551 121.07 879.551 125.93C879.551 130.79 883.301 134.24 888.431 134.24ZM888.431 130.4C886.091 130.4 884.291 128.72 884.291 125.93C884.291 123.14 886.091 121.46 888.431 121.46C890.771 121.46 892.541 123.14 892.541 125.93C892.541 128.72 890.771 130.4 888.431 130.4ZM910.01 117.62C907.85 117.62 906.11 118.31 904.94 119.72V117.86H900.47V139.82H905.15V132.29C906.35 133.61 908 134.24 910.01 134.24C914.54 134.24 918.05 131 918.05 125.93C918.05 120.86 914.54 117.62 910.01 117.62ZM909.2 130.4C906.86 130.4 905.09 128.72 905.09 125.93C905.09 123.14 906.86 121.46 909.2 121.46C911.54 121.46 913.31 123.14 913.31 125.93C913.31 128.72 911.54 130.4 909.2 130.4ZM921.33 134H925.65L933.48 124.4V134H938.13V117.86H933.84L925.98 127.46V117.86H921.33V134ZM952.469 117.86V124.64C951.419 125.15 950.249 125.42 949.019 125.42C947.159 125.42 946.049 124.64 946.049 122.63V117.86H941.369V122.93C941.369 127.16 943.709 129.02 947.969 129.02C949.739 129.02 951.209 128.63 952.469 128V134H957.149V117.86H952.469ZM977.333 125.99C977.333 120.8 973.673 117.62 968.933 117.62C964.013 117.62 960.323 121.1 960.323 125.93C960.323 130.73 963.953 134.24 969.533 134.24C972.443 134.24 974.693 133.34 976.193 131.63L973.703 128.93C972.593 129.98 971.363 130.49 969.653 130.49C967.193 130.49 965.483 129.26 965.033 127.25H977.243C977.273 126.86 977.333 126.35 977.333 125.99ZM968.963 121.16C971.063 121.16 972.593 122.48 972.923 124.52H964.973C965.303 122.45 966.833 121.16 968.963 121.16ZM992.35 134H997.87L991.84 125.6L997.48 117.86H992.5L988.12 124.13H985.6V117.86H980.92V134H985.6V127.88H988.03L992.35 134Z" fill="#33291F"/>
<path d="M863.094 379V403.6H877.494V392.2H900.694L875.594 449H893.194L919.194 389.5V379H863.094Z" fill="#EEAB47"/>
<path d="M840.601 469.86L840.361 476.34C840.211 479.4 840.031 482.19 837.811 482.19C837.601 482.19 837.361 482.16 837.121 482.13L836.881 485.97C837.811 486.21 838.591 486.33 839.311 486.33C843.301 486.33 844.231 482.31 844.471 476.55L844.621 473.7H849.721V486H854.401V469.86H840.601ZM866.461 486.24C871.591 486.24 875.311 482.79 875.311 477.93C875.311 473.07 871.591 469.62 866.461 469.62C861.331 469.62 857.581 473.07 857.581 477.93C857.581 482.79 861.331 486.24 866.461 486.24ZM866.461 482.4C864.121 482.4 862.321 480.72 862.321 477.93C862.321 475.14 864.121 473.46 866.461 473.46C868.801 473.46 870.571 475.14 870.571 477.93C870.571 480.72 868.801 482.4 866.461 482.4ZM900.82 477.87C900.82 472.89 897.31 470.07 891.16 469.65V463.74H886.87V469.65C880.63 470.07 877.21 472.86 877.21 477.87C877.21 482.97 880.69 485.88 886.87 486.3V491.82H891.16V486.3C897.31 485.85 900.82 482.91 900.82 477.87ZM881.74 477.87C881.74 475.17 883.27 473.64 886.87 473.28V482.67C883.27 482.28 881.74 480.72 881.74 477.87ZM891.16 482.67V473.28C894.76 473.64 896.32 475.14 896.32 477.87C896.32 480.72 894.76 482.28 891.16 482.67ZM916.963 469.86H901.393V473.7H906.853V486H911.503V473.7H916.963V469.86ZM926.344 486.24C931.474 486.24 935.194 482.79 935.194 477.93C935.194 473.07 931.474 469.62 926.344 469.62C921.214 469.62 917.464 473.07 917.464 477.93C917.464 482.79 921.214 486.24 926.344 486.24ZM926.344 482.4C924.004 482.4 922.204 480.72 922.204 477.93C922.204 475.14 924.004 473.46 926.344 473.46C928.684 473.46 930.454 475.14 930.454 477.93C930.454 480.72 928.684 482.4 926.344 482.4ZM950.743 477.57C952.243 476.88 953.113 475.65 953.113 474.03C953.113 471.39 950.713 469.86 946.663 469.86H938.413V486H947.023C951.463 486 953.593 484.26 953.593 481.41C953.593 479.49 952.633 478.2 950.743 477.57ZM942.703 473.04H946.243C947.863 473.04 948.703 473.58 948.703 474.75C948.703 475.89 947.863 476.49 946.243 476.49H942.703V473.04ZM946.633 482.82H942.703V479.25H946.723C948.433 479.25 949.213 479.82 949.213 481.05C949.213 482.25 948.343 482.82 946.633 482.82Z" fill="#33291F"/>
<rect y="560" width="1119" height="89" fill="white"/>
<defs>
<linearGradient id="paint0_linear" x1="333.006" y1="24.2559" x2="766.376" y2="457.626" gradientUnits="userSpaceOnUse">
<stop stop-color="#EEAB47"/>
<stop offset="1" stop-color="#C87C0C"/>
</linearGradient>
<linearGradient id="paint1_linear" x1="549.691" y1="73.5762" x2="549.691" y2="401.838" gradientUnits="userSpaceOnUse">
<stop stop-color="#ECA843"/>
<stop offset="1" stop-color="#CC8212"/>
</linearGradient>
<linearGradient id="paint2_linear" x1="385.561" y1="73.5762" x2="713.822" y2="401.838" gradientUnits="userSpaceOnUse">
<stop stop-color="#EEAB47"/>
<stop offset="1" stop-color="#C87C0C"/>
</linearGradient>
<linearGradient id="paint3_linear" x1="701.694" y1="71.1504" x2="701.694" y2="100.257" gradientUnits="userSpaceOnUse">
<stop stop-color="#EEAB47"/>
<stop offset="1" stop-color="#C87C0C"/>
</linearGradient>
<linearGradient id="paint4_linear" x1="337.453" y1="194.854" x2="337.453" y2="211.834" gradientUnits="userSpaceOnUse">
<stop stop-color="#EEAB47"/>
<stop offset="1" stop-color="#C87C0C"/>
</linearGradient>
<linearGradient id="paint5_linear" x1="688.758" y1="392.943" x2="688.758" y2="413.965" gradientUnits="userSpaceOnUse">
<stop stop-color="#EEAB47"/>
<stop offset="1" stop-color="#C87C0C"/>
</linearGradient>
<linearGradient id="paint6_linear" x1="410.625" y1="387.284" x2="410.625" y2="424.476" gradientUnits="userSpaceOnUse">
<stop stop-color="#EEAB47"/>
<stop offset="1" stop-color="#C87C0C"/>
</linearGradient>
</defs>
</svg>
