<svg width="1027" height="557" viewBox="0 0 1027 557" fill="none" xmlns="http://www.w3.org/2000/svg">
<circle cx="536.691" cy="240.941" r="214.685" stroke="url(#paint0_linear)" stroke-width="4"/>
<circle cx="536.691" cy="237.707" r="163.131" fill="url(#paint1_linear)" stroke="url(#paint2_linear)" stroke-width="2"/>
<path d="M451.291 208.397H457.86V214.967H451.291V208.397Z" fill="white"/>
<path d="M464.429 208.397H470.999V214.967H464.429V208.397Z" fill="white"/>
<path d="M457.86 182.12H464.429V188.689H457.86V182.12Z" fill="white"/>
<path d="M470.999 182.12H477.568V188.689H470.999V182.12Z" fill="white"/>
<path d="M477.568 208.397H484.137V214.967H477.568V208.397Z" fill="white"/>
<path d="M520.268 185.405H526.838V191.975H520.268V185.405Z" fill="white"/>
<path d="M533.407 185.405H539.976V191.975H533.407V185.405Z" fill="white"/>
<path d="M546.545 185.405H553.115V191.975H546.545V185.405Z" fill="white"/>
<path d="M520.268 198.544H526.838V205.113H520.268V198.544Z" fill="white"/>
<path d="M533.407 198.544H539.976V205.113H533.407V198.544Z" fill="white"/>
<path d="M546.545 198.544H553.115V205.113H546.545V198.544Z" fill="white"/>
<path d="M520.268 211.683H526.838V218.252H520.268V211.683Z" fill="white"/>
<path d="M533.407 211.683H539.976V218.252H533.407V211.683Z" fill="white"/>
<path d="M546.545 211.683H553.115V218.252H546.545V211.683Z" fill="white"/>
<path d="M451.291 221.536H457.86V228.105H451.291V221.536Z" fill="white"/>
<path d="M464.429 221.536H470.999V228.105H464.429V221.536Z" fill="white"/>
<path d="M477.568 221.536H484.137V228.105H477.568V221.536Z" fill="white"/>
<path d="M451.291 234.675H457.86V241.244H451.291V234.675Z" fill="white"/>
<path d="M464.429 234.675H470.999V241.244H464.429V234.675Z" fill="white"/>
<path d="M477.568 234.675H484.137V241.244H477.568V234.675Z" fill="white"/>
<path d="M451.291 247.813H457.86V254.383H451.291V247.813Z" fill="white"/>
<path d="M464.429 247.813H470.999V254.383H464.429V247.813Z" fill="white"/>
<path d="M477.568 247.813H484.137V254.383H477.568V247.813Z" fill="white"/>
<path d="M451.291 260.952H457.86V267.521H451.291V260.952Z" fill="white"/>
<path d="M464.429 260.952H470.999V267.521H464.429V260.952Z" fill="white"/>
<path d="M477.568 260.952H484.137V267.521H477.568V260.952Z" fill="white"/>
<path d="M507.13 264.236H513.699V270.806H507.13V264.236Z" fill="white"/>
<path d="M520.268 264.236H526.838V270.806H520.268V264.236Z" fill="white"/>
<path d="M533.407 264.236H539.976V270.806H533.407V264.236Z" fill="white"/>
<path d="M546.545 264.236H553.115V270.806H546.545V264.236Z" fill="white"/>
<path d="M559.684 264.236H566.253V270.806H559.684V264.236Z" fill="white"/>
<path d="M507.13 277.375H513.699V283.944H507.13V277.375Z" fill="white"/>
<path d="M520.268 277.375H526.838V283.944H520.268V277.375Z" fill="white"/>
<path d="M533.407 277.375H539.976V283.944H533.407V277.375Z" fill="white"/>
<path d="M546.545 277.375H553.115V283.944H546.545V277.375Z" fill="white"/>
<path d="M559.684 277.375H566.253V283.944H559.684V277.375Z" fill="white"/>
<path d="M451.291 274.09H457.86V280.659H451.291V274.09Z" fill="white"/>
<path d="M464.429 274.09H470.999V280.659H464.429V274.09Z" fill="white"/>
<path d="M477.568 274.09H484.137V280.659H477.568V274.09Z" fill="white"/>
<path d="M451.291 287.229H457.86V293.798H451.291V287.229Z" fill="white"/>
<path d="M464.429 287.229H470.999V293.798H464.429V287.229Z" fill="white"/>
<path d="M477.568 287.229H484.137V293.798H477.568V287.229Z" fill="white"/>
<path d="M451.291 300.367H457.86V306.936H451.291V300.367Z" fill="white"/>
<path d="M464.429 300.367H470.999V306.936H464.429V300.367Z" fill="white"/>
<path d="M477.568 300.367H484.137V306.936H477.568V300.367Z" fill="white"/>
<path d="M631.946 195.259H628.661V172.267C628.661 171.395 628.315 170.56 627.699 169.944C627.083 169.328 626.248 168.982 625.377 168.982H585.961C585.09 168.982 584.254 169.328 583.638 169.944C583.022 170.56 582.676 171.395 582.676 172.267V195.259H579.392C578.521 195.259 577.685 195.605 577.069 196.221C576.453 196.837 576.107 197.673 576.107 198.544V248.883L569.538 245.346V175.551C569.538 174.956 569.376 174.372 569.07 173.861L559.216 157.438C558.924 156.952 558.511 156.549 558.018 156.27C557.524 155.99 556.966 155.843 556.399 155.843H553.115V142.705C553.115 141.834 552.768 140.998 552.153 140.382C551.537 139.766 550.701 139.42 549.83 139.42H539.976V122.997H533.407V139.42H523.553C522.682 139.42 521.846 139.766 521.23 140.382C520.614 140.998 520.268 141.834 520.268 142.705V155.843H516.984C516.416 155.843 515.859 155.99 515.365 156.27C514.872 156.549 514.459 156.952 514.167 157.438L504.313 173.861C504.007 174.372 503.845 174.956 503.845 175.551V245.346L497.276 248.883V198.544C497.276 197.673 496.93 196.837 496.314 196.221C495.698 195.605 494.862 195.259 493.991 195.259H490.707V172.267C490.706 171.395 490.36 170.56 489.744 169.944C489.128 169.328 488.293 168.982 487.422 168.982H448.006C447.135 168.982 446.3 169.328 445.684 169.944C445.068 170.56 444.722 171.395 444.722 172.267V195.259H441.437C440.566 195.259 439.73 195.605 439.114 196.221C438.498 196.837 438.152 197.673 438.152 198.544V316.791C438.152 317.662 438.498 318.497 439.114 319.113C439.73 319.729 440.566 320.075 441.437 320.075H631.946C632.817 320.075 633.652 319.729 634.268 319.113C634.884 318.497 635.23 317.662 635.231 316.791V198.544C635.23 197.673 634.884 196.837 634.268 196.221C633.652 195.605 632.817 195.259 631.946 195.259ZM589.246 175.551H622.092V195.259H589.246V175.551ZM549.83 313.506H523.553V297.083H549.83V313.506ZM553.115 290.514H520.268C519.397 290.514 518.562 290.86 517.946 291.476C517.33 292.092 516.984 292.927 516.984 293.798V313.506H497.276V257.667H576.107V313.506H556.399V293.798C556.399 292.927 556.053 292.092 555.437 291.476C554.821 290.86 553.986 290.514 553.115 290.514ZM507.019 251.098L536.691 235.121L566.364 251.098H507.019ZM526.838 145.99H546.545V155.843H526.838V145.99ZM518.843 162.413H554.54L560.452 172.267H512.931L518.843 162.413ZM510.414 178.836H562.969V241.809L538.249 228.498C537.77 228.24 537.235 228.105 536.691 228.105C536.148 228.105 535.613 228.24 535.134 228.498L510.414 241.809V178.836ZM451.291 175.551H484.137V195.259H451.291V175.551ZM444.722 201.828H490.707V313.506H444.722V201.828ZM628.661 313.506H582.676V201.828H628.661V313.506Z" fill="white"/>
<path d="M615.523 208.397H622.092V214.967H615.523V208.397Z" fill="white"/>
<path d="M602.384 208.397H608.953V214.967H602.384V208.397Z" fill="white"/>
<path d="M608.953 182.12H615.523V188.689H608.953V182.12Z" fill="white"/>
<path d="M595.815 182.12H602.384V188.689H595.815V182.12Z" fill="white"/>
<path d="M589.246 208.397H595.815V214.967H589.246V208.397Z" fill="white"/>
<path d="M615.523 221.536H622.092V228.105H615.523V221.536Z" fill="white"/>
<path d="M602.384 221.536H608.953V228.105H602.384V221.536Z" fill="white"/>
<path d="M589.246 221.536H595.815V228.105H589.246V221.536Z" fill="white"/>
<path d="M615.523 234.675H622.092V241.244H615.523V234.675Z" fill="white"/>
<path d="M602.384 234.675H608.953V241.244H602.384V234.675Z" fill="white"/>
<path d="M589.246 234.675H595.815V241.244H589.246V234.675Z" fill="white"/>
<path d="M615.523 247.813H622.092V254.383H615.523V247.813Z" fill="white"/>
<path d="M602.384 247.813H608.953V254.383H602.384V247.813Z" fill="white"/>
<path d="M589.246 247.813H595.815V254.383H589.246V247.813Z" fill="white"/>
<path d="M615.523 260.952H622.092V267.521H615.523V260.952Z" fill="white"/>
<path d="M602.384 260.952H608.953V267.521H602.384V260.952Z" fill="white"/>
<path d="M589.246 260.952H595.815V267.521H589.246V260.952Z" fill="white"/>
<path d="M615.523 274.09H622.092V280.659H615.523V274.09Z" fill="white"/>
<path d="M602.384 274.09H608.953V280.659H602.384V274.09Z" fill="white"/>
<path d="M589.246 274.09H595.815V280.659H589.246V274.09Z" fill="white"/>
<path d="M615.523 287.229H622.092V293.798H615.523V287.229Z" fill="white"/>
<path d="M602.384 287.229H608.953V293.798H602.384V287.229Z" fill="white"/>
<path d="M589.246 287.229H595.815V293.798H589.246V287.229Z" fill="white"/>
<path d="M615.523 300.367H622.092V306.936H615.523V300.367Z" fill="white"/>
<path d="M602.384 300.367H608.953V306.936H602.384V300.367Z" fill="white"/>
<path d="M589.246 300.367H595.815V306.936H589.246V300.367Z" fill="white"/>
<circle cx="688.694" cy="85.7039" r="14.5535" fill="url(#paint3_linear)"/>
<circle cx="324.453" cy="203.344" r="8.48952" fill="url(#paint4_linear)"/>
<circle cx="675.758" cy="403.454" r="10.5108" fill="url(#paint5_linear)"/>
<circle cx="397.625" cy="405.88" r="18.5961" fill="url(#paint6_linear)"/>
<path d="M117.416 176.3H111.716L112.816 163H142.016V150H99.3156L95.7156 189.4H113.616C126.316 189.4 129.916 193 129.916 198.5C129.916 204.2 124.916 207.6 116.816 207.6C109.516 207.6 102.216 205.3 96.9156 201.3L90.5156 213.7C97.3156 218.5 107.516 221.2 117.216 221.2C137.216 221.2 146.316 210.4 146.316 198C146.316 185.6 138.116 176.3 117.416 176.3Z" fill="#EEAB47"/>
<path d="M19.3538 240.86L19.1138 247.34C18.9638 250.4 18.7838 253.19 16.5638 253.19C16.3538 253.19 16.1138 253.16 15.8738 253.13L15.6338 256.97C16.5638 257.21 17.3438 257.33 18.0638 257.33C22.0538 257.33 22.9838 253.31 23.2238 247.55L23.3738 244.7H28.4738V257H33.1538V240.86H19.3538ZM53.3442 248.99C53.3442 243.8 49.6842 240.62 44.9442 240.62C40.0242 240.62 36.3342 244.1 36.3342 248.93C36.3342 253.73 39.9642 257.24 45.5442 257.24C48.4542 257.24 50.7042 256.34 52.2042 254.63L49.7142 251.93C48.6042 252.98 47.3742 253.49 45.6642 253.49C43.2042 253.49 41.4942 252.26 41.0442 250.25H53.2542C53.2842 249.86 53.3442 249.35 53.3442 248.99ZM44.9742 244.16C47.0742 244.16 48.6042 245.48 48.9342 247.52H40.9842C41.3142 245.45 42.8442 244.16 44.9742 244.16ZM69.9349 240.86H54.3649V244.7H59.8249V257H64.4749V244.7H69.9349V240.86ZM80.9257 257H85.5757V250.97H92.5957V257H97.2757V240.86H92.5957V247.16H85.5757V240.86H80.9257V257ZM108.026 240.62C105.446 240.62 102.836 241.31 101.066 242.57L102.746 245.84C103.916 244.91 105.686 244.34 107.396 244.34C109.916 244.34 111.116 245.51 111.116 247.52H107.396C102.476 247.52 100.466 249.5 100.466 252.35C100.466 255.14 102.716 257.24 106.496 257.24C108.866 257.24 110.546 256.46 111.416 254.99V257H115.796V247.79C115.796 242.9 112.946 240.62 108.026 240.62ZM107.666 254.09C106.016 254.09 105.026 253.31 105.026 252.14C105.026 251.06 105.716 250.25 107.906 250.25H111.116V251.9C110.576 253.37 109.226 254.09 107.666 254.09ZM137.867 240.62C135.707 240.62 133.967 241.31 132.797 242.72V240.86H128.327V262.82H133.007V255.29C134.207 256.61 135.857 257.24 137.867 257.24C142.397 257.24 145.907 254 145.907 248.93C145.907 243.86 142.397 240.62 137.867 240.62ZM137.057 253.4C134.717 253.4 132.947 251.72 132.947 248.93C132.947 246.14 134.717 244.46 137.057 244.46C139.397 244.46 141.167 246.14 141.167 248.93C141.167 251.72 139.397 253.4 137.057 253.4ZM157.677 246.02H153.837V240.86H149.187V257L157.047 257.03C161.547 257.03 164.067 254.96 164.067 251.39C164.067 248 161.907 246.05 157.677 246.02ZM165.807 257H170.457V240.86H165.807V257ZM156.627 253.7H153.837V249.02L156.627 249.05C158.427 249.08 159.417 249.74 159.417 251.33C159.417 252.92 158.427 253.73 156.627 253.7ZM174.969 257H179.619V250.97H186.639V257H191.319V240.86H186.639V247.16H179.619V240.86H174.969V257ZM207.229 257H212.749L206.719 248.6L212.359 240.86H207.379L202.999 247.13H200.479V240.86H195.799V257H200.479V250.88H202.909L207.229 257ZM230.239 248.99C230.239 243.8 226.579 240.62 221.839 240.62C216.919 240.62 213.229 244.1 213.229 248.93C213.229 253.73 216.859 257.24 222.439 257.24C225.349 257.24 227.599 256.34 229.099 254.63L226.609 251.93C225.499 252.98 224.269 253.49 222.559 253.49C220.099 253.49 218.389 252.26 217.939 250.25H230.149C230.179 249.86 230.239 249.35 230.239 248.99ZM221.869 244.16C223.969 244.16 225.499 245.48 225.829 247.52H217.879C218.209 245.45 219.739 244.16 221.869 244.16Z" fill="#33291F"/>
<path d="M198.022 484.8L214.122 469.6C223.922 460.5 225.822 454.3 225.822 447.5C225.822 434.8 215.422 426.8 199.822 426.8C187.222 426.8 177.422 431.9 172.022 439.8L183.822 447.4C187.222 442.7 192.322 440.4 198.322 440.4C205.722 440.4 209.522 443.6 209.522 449.1C209.522 452.5 208.422 456.1 202.222 462L175.222 487.5V498H228.122V484.8H198.022ZM264.611 499.2C281.911 499.2 294.611 486.1 294.611 463C294.611 439.9 281.911 426.8 264.611 426.8C247.411 426.8 234.611 439.9 234.611 463C234.611 486.1 247.411 499.2 264.611 499.2ZM264.611 485.5C256.611 485.5 251.011 478.9 251.011 463C251.011 447.1 256.611 440.5 264.611 440.5C272.711 440.5 278.311 447.1 278.311 463C278.311 478.9 272.711 485.5 264.611 485.5Z" fill="#EEAB47"/>
<path d="M146.008 535H150.658V528.97H157.678V535H162.358V518.86H157.678V525.16H150.658V518.86H146.008V535ZM174.398 535.24C179.528 535.24 183.248 531.79 183.248 526.93C183.248 522.07 179.528 518.62 174.398 518.62C169.268 518.62 165.518 522.07 165.518 526.93C165.518 531.79 169.268 535.24 174.398 535.24ZM174.398 531.4C172.058 531.4 170.258 529.72 170.258 526.93C170.258 524.14 172.058 522.46 174.398 522.46C176.738 522.46 178.508 524.14 178.508 526.93C178.508 529.72 176.738 531.4 174.398 531.4ZM198.797 526.57C200.297 525.88 201.167 524.65 201.167 523.03C201.167 520.39 198.767 518.86 194.717 518.86H186.467V535H195.077C199.517 535 201.647 533.26 201.647 530.41C201.647 528.49 200.687 527.2 198.797 526.57ZM190.757 522.04H194.297C195.917 522.04 196.757 522.58 196.757 523.75C196.757 524.89 195.917 525.49 194.297 525.49H190.757V522.04ZM194.687 531.82H190.757V528.25H194.777C196.487 528.25 197.267 528.82 197.267 530.05C197.267 531.25 196.397 531.82 194.687 531.82ZM212.689 535.24C217.819 535.24 221.539 531.79 221.539 526.93C221.539 522.07 217.819 518.62 212.689 518.62C207.559 518.62 203.809 522.07 203.809 526.93C203.809 531.79 207.559 535.24 212.689 535.24ZM212.689 531.4C210.349 531.4 208.549 529.72 208.549 526.93C208.549 524.14 210.349 522.46 212.689 522.46C215.029 522.46 216.799 524.14 216.799 526.93C216.799 529.72 215.029 531.4 212.689 531.4ZM232.438 535.24C235.828 535.24 238.498 533.74 239.668 531.16L236.038 529.18C235.168 530.74 233.878 531.4 232.408 531.4C230.038 531.4 228.178 529.75 228.178 526.93C228.178 524.11 230.038 522.46 232.408 522.46C233.878 522.46 235.168 523.15 236.038 524.68L239.668 522.73C238.498 520.09 235.828 518.62 232.438 518.62C227.188 518.62 223.438 522.07 223.438 526.93C223.438 531.79 227.188 535.24 232.438 535.24ZM256.013 518.86H240.443V522.7H245.903V535H250.553V522.7H256.013V518.86ZM268.018 518.62C265.858 518.62 264.118 519.31 262.948 520.72V518.86H258.478V540.82H263.158V533.29C264.358 534.61 266.008 535.24 268.018 535.24C272.548 535.24 276.058 532 276.058 526.93C276.058 521.86 272.548 518.62 268.018 518.62ZM267.208 531.4C264.868 531.4 263.098 529.72 263.098 526.93C263.098 524.14 264.868 522.46 267.208 522.46C269.548 522.46 271.318 524.14 271.318 526.93C271.318 529.72 269.548 531.4 267.208 531.4ZM286.898 535.24C292.028 535.24 295.748 531.79 295.748 526.93C295.748 522.07 292.028 518.62 286.898 518.62C281.768 518.62 278.018 522.07 278.018 526.93C278.018 531.79 281.768 535.24 286.898 535.24ZM286.898 531.4C284.558 531.4 282.758 529.72 282.758 526.93C282.758 524.14 284.558 522.46 286.898 522.46C289.238 522.46 291.008 524.14 291.008 526.93C291.008 529.72 289.238 531.4 286.898 531.4ZM314.657 526.99C314.657 521.8 310.997 518.62 306.257 518.62C301.337 518.62 297.647 522.1 297.647 526.93C297.647 531.73 301.277 535.24 306.857 535.24C309.767 535.24 312.017 534.34 313.517 532.63L311.027 529.93C309.917 530.98 308.687 531.49 306.977 531.49C304.517 531.49 302.807 530.26 302.357 528.25H314.567C314.597 527.86 314.657 527.35 314.657 526.99ZM306.287 522.16C308.387 522.16 309.917 523.48 310.247 525.52H302.297C302.627 523.45 304.157 522.16 306.287 522.16ZM329.674 535H335.194L329.164 526.6L334.804 518.86H329.824L325.444 525.13H322.924V518.86H318.244V535H322.924V528.88H325.354L329.674 535Z" fill="#33291F"/>
<path d="M851.184 27V40H865.184V97H881.384V27H851.184ZM923.544 98.2C940.844 98.2 953.544 85.1 953.544 62C953.544 38.9 940.844 25.8 923.544 25.8C906.344 25.8 893.544 38.9 893.544 62C893.544 85.1 906.344 98.2 923.544 98.2ZM923.544 84.5C915.544 84.5 909.944 77.9 909.944 62C909.944 46.1 915.544 39.5 923.544 39.5C931.644 39.5 937.244 46.1 937.244 62C937.244 77.9 931.644 84.5 923.544 84.5Z" fill="#EEAB47"/>
<path d="M846.158 125.57C847.658 124.88 848.528 123.65 848.528 122.03C848.528 119.39 846.128 117.86 842.078 117.86H833.828V134H842.438C846.878 134 849.008 132.26 849.008 129.41C849.008 127.49 848.048 126.2 846.158 125.57ZM838.118 121.04H841.658C843.278 121.04 844.118 121.58 844.118 122.75C844.118 123.89 843.278 124.49 841.658 124.49H838.118V121.04ZM842.048 130.82H838.118V127.25H842.138C843.848 127.25 844.628 127.82 844.628 129.05C844.628 130.25 843.758 130.82 842.048 130.82ZM866.05 117.86H850.48V121.7H855.94V134H860.59V121.7H866.05V117.86ZM875.431 134.24C880.561 134.24 884.281 130.79 884.281 125.93C884.281 121.07 880.561 117.62 875.431 117.62C870.301 117.62 866.551 121.07 866.551 125.93C866.551 130.79 870.301 134.24 875.431 134.24ZM875.431 130.4C873.091 130.4 871.291 128.72 871.291 125.93C871.291 123.14 873.091 121.46 875.431 121.46C877.771 121.46 879.541 123.14 879.541 125.93C879.541 128.72 877.771 130.4 875.431 130.4ZM897.01 117.62C894.85 117.62 893.11 118.31 891.94 119.72V117.86H887.47V139.82H892.15V132.29C893.35 133.61 895 134.24 897.01 134.24C901.54 134.24 905.05 131 905.05 125.93C905.05 120.86 901.54 117.62 897.01 117.62ZM896.2 130.4C893.86 130.4 892.09 128.72 892.09 125.93C892.09 123.14 893.86 121.46 896.2 121.46C898.54 121.46 900.31 123.14 900.31 125.93C900.31 128.72 898.54 130.4 896.2 130.4ZM908.33 134H912.65L920.48 124.4V134H925.13V117.86H920.84L912.98 127.46V117.86H908.33V134ZM939.469 117.86V124.64C938.419 125.15 937.249 125.42 936.019 125.42C934.159 125.42 933.049 124.64 933.049 122.63V117.86H928.369V122.93C928.369 127.16 930.709 129.02 934.969 129.02C936.739 129.02 938.209 128.63 939.469 128V134H944.149V117.86H939.469ZM964.333 125.99C964.333 120.8 960.673 117.62 955.933 117.62C951.013 117.62 947.323 121.1 947.323 125.93C947.323 130.73 950.953 134.24 956.533 134.24C959.443 134.24 961.693 133.34 963.193 131.63L960.703 128.93C959.593 129.98 958.363 130.49 956.653 130.49C954.193 130.49 952.483 129.26 952.033 127.25H964.243C964.273 126.86 964.333 126.35 964.333 125.99ZM955.963 121.16C958.063 121.16 959.593 122.48 959.923 124.52H951.973C952.303 122.45 953.833 121.16 955.963 121.16ZM979.35 134H984.87L978.84 125.6L984.48 117.86H979.5L975.12 124.13H972.6V117.86H967.92V134H972.6V127.88H975.03L979.35 134Z" fill="#33291F"/>
<path d="M850.094 379V403.6H864.494V392.2H887.694L862.594 449H880.194L906.194 389.5V379H850.094Z" fill="#EEAB47"/>
<path d="M827.601 469.86L827.361 476.34C827.211 479.4 827.031 482.19 824.811 482.19C824.601 482.19 824.361 482.16 824.121 482.13L823.881 485.97C824.811 486.21 825.591 486.33 826.311 486.33C830.301 486.33 831.231 482.31 831.471 476.55L831.621 473.7H836.721V486H841.401V469.86H827.601ZM853.461 486.24C858.591 486.24 862.311 482.79 862.311 477.93C862.311 473.07 858.591 469.62 853.461 469.62C848.331 469.62 844.581 473.07 844.581 477.93C844.581 482.79 848.331 486.24 853.461 486.24ZM853.461 482.4C851.121 482.4 849.321 480.72 849.321 477.93C849.321 475.14 851.121 473.46 853.461 473.46C855.801 473.46 857.571 475.14 857.571 477.93C857.571 480.72 855.801 482.4 853.461 482.4ZM887.82 477.87C887.82 472.89 884.31 470.07 878.16 469.65V463.74H873.87V469.65C867.63 470.07 864.21 472.86 864.21 477.87C864.21 482.97 867.69 485.88 873.87 486.3V491.82H878.16V486.3C884.31 485.85 887.82 482.91 887.82 477.87ZM868.74 477.87C868.74 475.17 870.27 473.64 873.87 473.28V482.67C870.27 482.28 868.74 480.72 868.74 477.87ZM878.16 482.67V473.28C881.76 473.64 883.32 475.14 883.32 477.87C883.32 480.72 881.76 482.28 878.16 482.67ZM903.963 469.86H888.393V473.7H893.853V486H898.503V473.7H903.963V469.86ZM913.344 486.24C918.474 486.24 922.194 482.79 922.194 477.93C922.194 473.07 918.474 469.62 913.344 469.62C908.214 469.62 904.464 473.07 904.464 477.93C904.464 482.79 908.214 486.24 913.344 486.24ZM913.344 482.4C911.004 482.4 909.204 480.72 909.204 477.93C909.204 475.14 911.004 473.46 913.344 473.46C915.684 473.46 917.454 475.14 917.454 477.93C917.454 480.72 915.684 482.4 913.344 482.4ZM937.743 477.57C939.243 476.88 940.113 475.65 940.113 474.03C940.113 471.39 937.713 469.86 933.663 469.86H925.413V486H934.023C938.463 486 940.593 484.26 940.593 481.41C940.593 479.49 939.633 478.2 937.743 477.57ZM929.703 473.04H933.243C934.863 473.04 935.703 473.58 935.703 474.75C935.703 475.89 934.863 476.49 933.243 476.49H929.703V473.04ZM933.633 482.82H929.703V479.25H933.723C935.433 479.25 936.213 479.82 936.213 481.05C936.213 482.25 935.343 482.82 933.633 482.82Z" fill="#33291F"/>
<defs>
<linearGradient id="paint0_linear" x1="320.006" y1="24.2559" x2="753.376" y2="457.626" gradientUnits="userSpaceOnUse">
<stop stop-color="#EEAB47"/>
<stop offset="1" stop-color="#C87C0C"/>
</linearGradient>
<linearGradient id="paint1_linear" x1="536.691" y1="73.5762" x2="536.691" y2="401.838" gradientUnits="userSpaceOnUse">
<stop stop-color="#ECA843"/>
<stop offset="1" stop-color="#CC8212"/>
</linearGradient>
<linearGradient id="paint2_linear" x1="372.561" y1="73.5762" x2="700.822" y2="401.838" gradientUnits="userSpaceOnUse">
<stop stop-color="#EEAB47"/>
<stop offset="1" stop-color="#C87C0C"/>
</linearGradient>
<linearGradient id="paint3_linear" x1="688.694" y1="71.1504" x2="688.694" y2="100.257" gradientUnits="userSpaceOnUse">
<stop stop-color="#EEAB47"/>
<stop offset="1" stop-color="#C87C0C"/>
</linearGradient>
<linearGradient id="paint4_linear" x1="324.453" y1="194.854" x2="324.453" y2="211.834" gradientUnits="userSpaceOnUse">
<stop stop-color="#EEAB47"/>
<stop offset="1" stop-color="#C87C0C"/>
</linearGradient>
<linearGradient id="paint5_linear" x1="675.758" y1="392.943" x2="675.758" y2="413.965" gradientUnits="userSpaceOnUse">
<stop stop-color="#EEAB47"/>
<stop offset="1" stop-color="#C87C0C"/>
</linearGradient>
<linearGradient id="paint6_linear" x1="397.625" y1="387.284" x2="397.625" y2="424.476" gradientUnits="userSpaceOnUse">
<stop stop-color="#EEAB47"/>
<stop offset="1" stop-color="#C87C0C"/>
</linearGradient>
</defs>
</svg>
